name Walk4.mot
datacolumns 19
datarows 12
range 2.89800000 2.90900000
endheader

                time	   L_ground_force_vx	   L_ground_force_vy	   L_ground_force_vz	   L_ground_force_px	   L_ground_force_py	   L_ground_force_pz	   R_ground_force_vx	   R_ground_force_vy	   R_ground_force_vz	   R_ground_force_px	   R_ground_force_py	   R_ground_force_pz	   L_ground_torque_x	   L_ground_torque_y	   L_ground_torque_z	   R_ground_torque_x	   R_ground_torque_y	   R_ground_torque_z	
          2.89800000	          0.00000000	          0.00000000	          0.00000000	          0.00000000	          0.00000000	          0.00000000	         16.44590753	         69.84850829	          4.87229879	          0.19595017	          0.00000000	          0.08877276	          0.00000000	          0.00000000	          0.00000000	          0.00000000	         -6.09649785	          0.00000000	
          2.89900000	          0.00000000	          0.00000000	          0.00000000	          0.00000000	          0.00000000	          0.00000000	         14.91052948	         64.07335254	          4.30073468	          0.19659378	          0.00000000	          0.08923162	          0.00000000	          0.00000000	          0.00000000	          0.00000000	         -5.71662113	          0.00000000	
          2.90000000	          0.00000000	          0.00000000	          0.00000000	          0.00000000	          0.00000000	          0.00000000	         13.50788305	         58.51676691	          3.75420697	          0.19714963	          0.00000000	          0.08940481	          0.00000000	          0.00000000	          0.00000000	          0.00000000	         -5.36090984	          0.00000000	
          2.90100000	          0.00000000	          0.00000000	          0.00000000	          0.00000000	          0.00000000	          0.00000000	         12.20801917	         53.20128330	          3.24990887	          0.19751570	          0.00000000	          0.08917283	          0.00000000	          0.00000000	          0.00000000	          0.00000000	         -5.02936579	          0.00000000	
          2.90200000	          0.00000000	          0.00000000	          0.00000000	          0.00000000	          0.00000000	          0.00000000	         10.97202904	         48.17015898	          2.81303732	          0.19747048	          0.00000000	          0.08868310	          0.00000000	          0.00000000	          0.00000000	          0.00000000	         -4.72640022	          0.00000000	
          2.90300000	          0.00000000	          0.00000000	          0.00000000	          0.00000000	          0.00000000	          0.00000000	          9.76854064	         43.48767696	          2.45336251	          0.19668857	          0.00000000	          0.08821740	          0.00000000	          0.00000000	          0.00000000	          0.00000000	         -4.45404805	          0.00000000	
          2.90400000	          0.00000000	          0.00000000	          0.00000000	          0.00000000	          0.00000000	          0.00000000	          8.58514107	         39.23972991	          2.16737295	          0.19521197	          0.00000000	          0.08795353	          0.00000000	          0.00000000	          0.00000000	          0.00000000	         -4.20733682	          0.00000000	
          2.90500000	          0.00000000	          0.00000000	          0.00000000	          0.00000000	          0.00000000	          0.00000000	          7.42279702	         35.52591302	          1.95585691	          0.19385801	          0.00000000	          0.08795522	          0.00000000	          0.00000000	          0.00000000	          0.00000000	         -3.97718620	          0.00000000	
          2.90600000	          0.00000000	          0.00000000	          0.00000000	          0.00000000	          0.00000000	          0.00000000	          6.28006771	         32.39643057	          1.80891328	          0.19362742	          0.00000000	          0.08828841	          0.00000000	          0.00000000	          0.00000000	          0.00000000	         -3.75216104	          0.00000000	
          2.90700000	          0.00000000	          0.00000000	          0.00000000	          0.00000000	          0.00000000	          0.00000000	          5.15392701	         29.76015943	          1.68745451	          0.19464493	          0.00000000	          0.08902190	          0.00000000	          0.00000000	          0.00000000	          0.00000000	         -3.51704094	          0.00000000	
          2.90800000	          0.00000000	          0.00000000	          0.00000000	          0.00000000	          0.00000000	          0.00000000	          4.05189145	         27.35462689	          1.54297094	          0.19612649	          0.00000000	          0.09003260	          0.00000000	          0.00000000	          0.00000000	          0.00000000	         -3.25121926	          0.00000000	
          2.90900000	          0.00000000	          0.00000000	          0.00000000	          0.00000000	          0.00000000	          0.00000000	          2.99526543	         24.80097833	          1.34597178	          0.19732924	          0.00000000	          0.09096563	          0.00000000	          0.00000000	          0.00000000	          0.00000000	         -2.93051680	          0.00000000	
